<!--?xml version="1.0" standalone="no"?-->
              <svg id="sw-js-blob-svg" viewBox="0 0 100 100" xmlns="http://www.w3.org/2000/svg" version="1.1">
                    <defs> 
                        <linearGradient id="sw-gradient" x1="0" x2="1" y1="1" y2="0">
                            <stop id="stop1" stop-color="rgba(248, 117, 55, 1)" offset="0%"></stop>
                            <stop id="stop2" stop-color="rgba(251, 168, 31, 1)" offset="100%"></stop>
                        </linearGradient>
                    </defs>
                <path fill="url(#sw-gradient)" d="M16.1,-19.5C20,-15.8,22,-10,21.6,-4.9C21.2,0.3,18.6,4.7,15.6,8.1C12.6,11.4,9.2,13.7,4.6,17.4C0.1,21.1,-5.7,26.2,-12.3,26.8C-19,27.5,-26.6,23.6,-29.6,17.5C-32.6,11.5,-30.9,3.2,-29,-4.7C-27.1,-12.5,-25,-19.9,-20.1,-23.4C-15.3,-26.9,-7.6,-26.5,-0.8,-25.6C6,-24.6,12.1,-23.1,16.1,-19.5Z" width="100%" height="100%" transform="translate(50 50)" stroke-width="0" style="transition: all 0.3s ease 0s;"></path>
              </svg>