<!--?xml version="1.0" standalone="no"?-->
              <svg id="sw-js-blob-svg" viewBox="0 0 100 100" xmlns="http://www.w3.org/2000/svg" version="1.1">
                    <defs> 
                        <linearGradient id="sw-gradient" x1="0" x2="1" y1="1" y2="0">
                            <stop id="stop1" stop-color="rgba(248, 117, 55, 1)" offset="0%"></stop>
                            <stop id="stop2" stop-color="rgba(251, 168, 31, 1)" offset="100%"></stop>
                        </linearGradient>
                    </defs>
                <path fill="url(#sw-gradient)" d="M15.9,-20.5C21.3,-18,26.7,-14.2,31.9,-8.1C37,-1.9,41.8,6.6,39.3,12.3C36.8,17.9,26.9,20.7,19.1,23C11.3,25.3,5.7,27.2,-1.6,29.4C-8.9,31.6,-17.7,34.1,-21.9,30.6C-26,27.1,-25.5,17.6,-25.5,10C-25.6,2.5,-26.3,-3.2,-24.7,-7.9C-23,-12.7,-19,-16.7,-14.5,-19.4C-10,-22.1,-5,-23.6,0.2,-23.8C5.3,-24,10.6,-22.9,15.9,-20.5Z" width="100%" height="100%" transform="translate(50 50)" stroke-width="0" style="transition: all 0.3s ease 0s;" stroke="url(#sw-gradient)"></path>
              </svg>