<!--?xml version="1.0" standalone="no"?-->
              <svg id="sw-js-blob-svg" viewBox="0 0 100 100" xmlns="http://www.w3.org/2000/svg" version="1.1">
                    <defs> 
                        <linearGradient id="sw-gradient" x1="0" x2="1" y1="1" y2="0">
                            <stop id="stop1" stop-color="rgba(248, 117, 55, 1)" offset="0%"></stop>
                            <stop id="stop2" stop-color="rgba(251, 168, 31, 1)" offset="100%"></stop>
                        </linearGradient>
                    </defs>
                <path fill="url(#sw-gradient)" d="M15.3,-19.9C22.2,-16,31.9,-14.7,36.3,-9.8C40.7,-4.8,39.9,4,34,7.7C28.2,11.4,17.3,10.1,10.8,13.4C4.3,16.6,2.1,24.4,-3.3,28.9C-8.7,33.4,-17.3,34.6,-22.4,30.9C-27.4,27.1,-28.7,18.4,-30.7,10.4C-32.7,2.4,-35.3,-5,-34.4,-12.3C-33.6,-19.7,-29.3,-27,-23,-31.1C-16.6,-35.2,-8.3,-36,-2.1,-33.1C4.2,-30.3,8.4,-23.8,15.3,-19.9Z" width="100%" height="100%" transform="translate(50 50)" stroke-width="0" style="transition: all 0.3s ease 0s;" stroke="url(#sw-gradient)"></path>
              </svg>