<!--?xml version="1.0" standalone="no"?-->
              <svg id="sw-js-blob-svg" viewBox="0 0 100 100" xmlns="http://www.w3.org/2000/svg" version="1.1">
                    <defs> 
                        <linearGradient id="sw-gradient" x1="0" x2="1" y1="1" y2="0">
                            <stop id="stop1" stop-color="rgba(248, 117, 55, 1)" offset="0%"></stop>
                            <stop id="stop2" stop-color="rgba(251, 168, 31, 1)" offset="100%"></stop>
                        </linearGradient>
                    </defs>
                <path fill="url(#sw-gradient)" d="M18.6,-28.9C24.5,-28.7,30.2,-24.7,33.4,-19.3C36.5,-13.8,37.1,-6.9,33.7,-2C30.3,3,23,6,19.9,11.5C16.8,17.1,18,25.1,15.4,29.6C12.8,34,6.4,34.8,0.3,34.2C-5.7,33.7,-11.4,31.7,-14.9,27.8C-18.4,23.9,-19.7,18,-24.1,13C-28.5,8.1,-36.1,4,-39.5,-2C-43,-8.1,-42.5,-16.1,-37,-19.2C-31.5,-22.2,-21,-20.3,-14,-19.9C-7,-19.6,-3.5,-20.9,1.4,-23.3C6.3,-25.7,12.6,-29.2,18.6,-28.9Z" width="100%" height="100%" transform="translate(50 50)" stroke-width="0" style="transition: all 0.3s ease 0s;"></path>
              </svg>