<!--?xml version="1.0" standalone="no"?-->
              <svg id="sw-js-blob-svg" viewBox="0 0 100 100" xmlns="http://www.w3.org/2000/svg" version="1.1">
                    <defs> 
                        <linearGradient id="sw-gradient" x1="0" x2="1" y1="1" y2="0">
                            <stop id="stop1" stop-color="rgba(255, 159, 0, 1)" offset="0%"></stop>
                            <stop id="stop2" stop-color="rgba(255, 158.795, 0, 1)" offset="100%"></stop>
                        </linearGradient>
                    </defs>
                <path fill="url(#sw-gradient)" d="M21,-29.2C28.3,-27.9,36.2,-24,40.6,-17.6C45.1,-11.2,46.1,-2.2,44.1,5.8C42.1,13.8,37.2,20.9,31.4,26.6C25.5,32.3,18.8,36.7,11.6,38.2C4.4,39.6,-3.2,38.2,-8.9,34.6C-14.6,30.9,-18.4,25,-22.8,19.8C-27.3,14.6,-32.5,10,-35.4,3.8C-38.2,-2.3,-38.7,-10.1,-35.2,-15.3C-31.6,-20.4,-24,-23,-17.4,-24.5C-10.9,-26.1,-5.5,-26.8,0.7,-27.9C6.8,-28.9,13.6,-30.4,21,-29.2Z" width="100%" height="100%" transform="translate(50 50)" stroke-width="0" style="transition: all 0.3s ease 0s;"></path>
              </svg>